<?xml version="1.0" encoding="UTF-8"?><svg id="Layer_1" xmlns="http://www.w3.org/2000/svg" viewBox="0 0 64.49 64.49"><defs><style>.cls-1{fill:#fff;}</style></defs><path class="cls-1" d="M32.25,64.49C14.47,64.49,0,50.03,0,32.25S14.47,0,32.25,0s32.25,14.47,32.25,32.25-14.47,32.25-32.25,32.25Zm0-60.81C16.49,3.68,3.68,16.49,3.68,32.25s12.82,28.57,28.57,28.57,28.57-12.82,28.57-28.57S48,3.68,32.25,3.68Z"/><path class="cls-1" d="M42.85,24.04l4.62,.12V15.76l-6.85-.24c-6.43,0-11.65,5.22-11.65,11.65v7.45h-7.93v9.01h7.93v18.68h9.97v-18.68h7.09l1.44-9.01h-8.53v-6.66c0-2.16,1.75-3.91,3.91-3.91Z"/></svg>