<?xml version="1.0" encoding="UTF-8"?><svg id="Layer_1" xmlns="http://www.w3.org/2000/svg" viewBox="0 0 64.49 64.49"><defs><style>.cls-1{fill:#333;}</style></defs><path class="cls-1" d="M32.24,64.49C14.46,64.49,0,50.02,0,32.24S14.46,0,32.24,0s32.24,14.46,32.24,32.24-14.46,32.24-32.24,32.24Zm0-60.81C16.49,3.68,3.68,16.49,3.68,32.24s12.81,28.57,28.57,28.57,28.57-12.81,28.57-28.57S47.99,3.68,32.24,3.68Z"/><g><path class="cls-1" d="M40.16,49.85h-14.86c-5.61,0-10.18-4.57-10.18-10.18v-14.86c0-5.61,4.57-10.18,10.18-10.18h14.86c5.61,0,10.18,4.57,10.18,10.18v14.86c0,5.61-4.57,10.18-10.18,10.18Zm-14.86-31.68c-3.66,0-6.64,2.98-6.64,6.64v14.86c0,3.66,2.98,6.64,6.64,6.64h14.86c3.66,0,6.64-2.98,6.64-6.64v-14.86c0-3.66-2.98-6.64-6.64-6.64h-14.86Z"/><path class="cls-1" d="M32.73,41.15c-4.92,0-8.91-4-8.91-8.91s4-8.91,8.91-8.91,8.91,4,8.91,8.91-4,8.91-8.91,8.91Zm0-14.87c-3.28,0-5.95,2.67-5.95,5.95s2.67,5.95,5.95,5.95,5.95-2.67,5.95-5.95-2.67-5.95-5.95-5.95Z"/><path class="cls-1" d="M43.9,22.88c0,1.15-.93,2.08-2.08,2.08s-2.08-.93-2.08-2.08,.93-2.08,2.08-2.08,2.08,.93,2.08,2.08Z"/></g></svg>