<?xml version="1.0" encoding="UTF-8"?><svg id="Layer_1" xmlns="http://www.w3.org/2000/svg" viewBox="0 0 67.71 67.71"><defs><style>.cls-1{fill:#333;}</style></defs><path class="cls-1" d="M33.85,67.71C15.19,67.71,0,52.52,0,33.85S15.19,0,33.85,0s33.85,15.19,33.85,33.85-15.19,33.85-33.85,33.85Zm0-63.9C17.29,3.81,3.81,17.29,3.81,33.85s13.48,30.04,30.04,30.04,30.04-13.48,30.04-30.04S50.42,3.81,33.85,3.81Z"/><g><g><path class="cls-1" d="M35.18,14.99v26.25c0,1.47-.57,2.86-1.62,3.9-1.04,1.04-2.43,1.62-3.9,1.62s-2.86-.57-3.9-1.62c-1.04-1.04-1.62-2.43-1.62-3.9s.57-2.86,1.62-3.9c1.04-1.04,2.43-1.62,3.9-1.62,.35,0,.69,.03,1.03,.1,.2,.04,.4,.09,.59,.15v-6.77c-.53-.07-1.08-.11-1.62-.11-1.64,0-3.23,.32-4.73,.96-1.45,.61-2.75,1.49-3.86,2.6-1.11,1.11-1.99,2.41-2.6,3.86-.63,1.5-.96,3.09-.96,4.73s.32,3.23,.96,4.73c.61,1.45,1.49,2.75,2.6,3.86,1.11,1.11,2.41,1.99,3.86,2.6,1.5,.63,3.09,.96,4.73,.96s3.23-.32,4.73-.96c1.45-.61,2.75-1.49,3.86-2.6,1.11-1.11,1.99-2.41,2.6-3.86,.63-1.5,.96-3.09,.96-4.73V14.99h-6.63Z"/><path class="cls-1" d="M50.99,30.8c-2.13,0-4.2-.42-6.16-1.24-1.88-.8-3.57-1.94-5.02-3.39-1.45-1.45-2.59-3.14-3.39-5.02-.83-1.95-1.24-4.02-1.24-6.16h6.63c0,2.45,.95,4.76,2.69,6.49s4.04,2.69,6.49,2.69v6.63Z"/></g><path class="cls-1" d="M48.98,23.95v5.19c-2.13,0-4.2-.42-6.16-1.24-1.07-.45-2.08-1.02-3.02-1.69v13.37c0,1.64-.32,3.23-.96,4.73-.61,1.45-1.49,2.75-2.6,3.86-1.11,1.11-2.41,1.99-3.86,2.6-1.5,.63-3.09,.96-4.73,.96s-3.23-.32-4.73-.96c-.69-.29-1.35-.64-1.97-1.05,.04,.04,.08,.08,.12,.12,1.11,1.11,2.41,1.99,3.86,2.6,1.5,.63,3.09,.96,4.73,.96s3.23-.32,4.73-.96c1.45-.61,2.75-1.49,3.86-2.6,1.11-1.11,1.99-2.41,2.6-3.86,.63-1.5,.96-3.09,.96-4.73v-13.37c.94,.67,1.95,1.24,3.02,1.69,1.95,.83,4.02,1.24,6.16,1.24v-6.63c-.68,0-1.36-.07-2.01-.22Z"/></g></svg>