<?xml version="1.0" encoding="UTF-8"?><svg id="Layer_1" xmlns="http://www.w3.org/2000/svg" viewBox="0 0 67.3 67.3"><defs><style>.cls-1{fill:#fff;}</style></defs><path class="cls-1" d="M33.65,67.3C15.09,67.3,0,52.2,0,33.65S15.09,0,33.65,0s33.65,15.09,33.65,33.65-15.09,33.65-33.65,33.65Zm0-63.46C17.21,3.84,3.84,17.21,3.84,33.65s13.37,29.81,29.81,29.81,29.81-13.37,29.81-29.81S50.09,3.84,33.65,3.84Z"/><path class="cls-1" d="M34.95,29.73c-9.38-.24-15.73-7.89-15.73-7.89,0,0-3.23,6.14,2.28,10.1,0,0-1.53,.13-3.23-.85,0,0-.66,5.7,5.84,7.51,0,0-.43,.47-3.18,.25,0,0,1.34,5.04,6.95,5.19,0,0-3.45,3.72-10.97,3.32,0,0,11.93,8.08,24.58-.72,4.29-2.99,9.4-11.19,8.7-18.7,0,0,2.31-1.48,3.69-3.9,0,0-.99,.41-2.03,.7-.85,.24-1.73,.38-2.1,.39,0,0,2.83-1.96,3.15-4.15,0,0-3.09,1.68-4.71,1.8h-.06c-1.4-1.48-3.39-2.41-5.59-2.41-4.24,0-7.68,3.44-7.68,7.68,0,.57,.06,1.13,.18,1.66h-.11Z"/></svg>