<?xml version="1.0" encoding="UTF-8"?><svg id="Layer_1" xmlns="http://www.w3.org/2000/svg" viewBox="0 0 64.93 64.93"><defs><style>.cls-1{fill:#333;}</style></defs><path class="cls-1" d="M53.49,11.44c-5.38-5.38-12.82-8.71-21.03-8.71s-15.65,3.33-21.03,8.71C6.06,16.82,2.73,24.25,2.73,32.47s3.33,15.65,8.71,21.03c5.38,5.38,12.82,8.71,21.03,8.71s15.65-3.33,21.03-8.71c5.38-5.38,8.71-12.82,8.71-21.03s-3.33-15.65-8.71-21.03M32.47,0c8.97,0,17.08,3.63,22.96,9.51,5.88,5.88,9.51,13.99,9.51,22.96s-3.63,17.08-9.51,22.96c-5.88,5.88-13.99,9.51-22.96,9.51s-17.08-3.63-22.96-9.51C3.63,49.55,0,41.43,0,32.47S3.63,15.38,9.51,9.51C15.38,3.63,23.5,0,32.47,0Z"/><path class="cls-1" d="M31.36,51.58v-11.56c-2.46,.07-4.94,.29-7.43,.66,.51,2.13,1.2,4.05,2.05,5.68,1.46,2.81,3.34,4.71,5.38,5.22m9.69-11.05c-2.47-.33-4.96-.51-7.47-.53v11.58c2.05-.51,3.92-2.41,5.38-5.22,.87-1.67,1.58-3.64,2.08-5.83Zm.89-8.18h-8.35v5.44c2.65,.02,5.28,.21,7.89,.57,.3-1.85,.46-3.83,.46-5.88v-.13Zm-.91-8.04c-2.49,.48-4.97,.75-7.44,.81v5.01h8.28c-.13-2.06-.41-4.01-.84-5.82Zm-7.44-10.95v9.53c2.28-.06,4.56-.3,6.85-.73-.42-1.3-.91-2.5-1.47-3.58-1.46-2.81-3.34-4.71-5.38-5.22Zm-9.05,8.76c2.27,.44,4.55,.7,6.83,.77V13.35c-2.05,.51-3.92,2.41-5.38,5.22-.55,1.06-1.04,2.25-1.45,3.54Zm-1.45,8.01h8.28v-5.02c-2.48-.07-4.96-.35-7.43-.85-.43,1.82-.72,3.79-.85,5.86Zm.41,8.38c2.64-.39,5.26-.63,7.87-.7v-5.46h-8.35v.13c0,2.11,.17,4.14,.49,6.04Zm8.98-27.51c5.93,0,11.3,2.4,15.18,6.29,3.89,3.89,6.29,9.25,6.29,15.18s-2.4,11.3-6.29,15.18-9.25,6.29-15.18,6.29-11.3-2.4-15.18-6.29c-3.89-3.89-6.29-9.25-6.29-15.18s2.4-11.3,6.29-15.18c3.89-3.89,9.25-6.29,15.18-6.29Zm-6.25,39.68c-.81-.93-1.55-2.05-2.21-3.31-.95-1.82-1.72-3.96-2.27-6.33-1.92,.35-3.85,.79-5.79,1.31,.82,1.36,1.79,2.61,2.91,3.73,2.05,2.05,4.56,3.64,7.36,4.6Zm22.89-8.51c-1.94-.53-3.9-.97-5.86-1.31-.55,2.44-1.34,4.65-2.31,6.51-.66,1.26-1.4,2.37-2.21,3.31,2.8-.96,5.31-2.55,7.36-4.6,1.17-1.17,2.18-2.48,3.02-3.91Zm2.62-9.83h-7.57v.13c0,2.16-.17,4.25-.49,6.22,2.16,.37,4.32,.86,6.46,1.47,1.03-2.35,1.6-4.95,1.6-7.69,0-.04,0-.08,0-.13Zm-3-10.19c-1.85,.68-3.7,1.24-5.54,1.68,.46,1.96,.77,4.07,.9,6.29h7.5c-.35-2.91-1.35-5.62-2.86-7.97Zm-10-7.89c.81,.93,1.55,2.05,2.21,3.31,.64,1.24,1.2,2.62,1.67,4.13,1.59-.38,3.18-.85,4.77-1.41-.41-.5-.84-.97-1.29-1.42-2.05-2.05-4.56-3.64-7.36-4.6Zm-21.07,5.93c1.57,.57,3.14,1.06,4.71,1.45,.46-1.48,1.02-2.85,1.65-4.07,.66-1.26,1.4-2.37,2.21-3.31-2.8,.96-5.31,2.55-7.36,4.6-.42,.42-.83,.87-1.21,1.33Zm-4.29,9.94h7.49c.13-2.24,.44-4.38,.91-6.35-1.83-.46-3.66-1.04-5.48-1.73-1.54,2.38-2.57,5.13-2.93,8.08Zm1.54,10.23c2.15-.6,4.28-1.09,6.41-1.48-.34-2.02-.52-4.17-.52-6.4v-.13s-7.57,0-7.57,0c0,.04,0,.08,0,.13,0,2.81,.6,5.47,1.68,7.88Z"/></svg>