<?xml version="1.0" encoding="UTF-8"?><svg id="Layer_1" xmlns="http://www.w3.org/2000/svg" viewBox="0 0 67.76 67.76"><defs><style>.cls-1{fill:#fff;}</style></defs><path class="cls-1" d="M33.88,67.76C15.2,67.76,0,52.56,0,33.88S15.2,0,33.88,0s33.88,15.2,33.88,33.88-15.2,33.88-33.88,33.88Zm0-63.89C17.33,3.86,3.86,17.33,3.86,33.88s13.46,30.01,30.01,30.01,30.01-13.46,30.01-30.01S50.43,3.86,33.88,3.86Z"/><path class="cls-1" d="M50.17,24.26c-1.23-1.56-3.45-1.9-6.03-1.98-4.57-.15-9.69-.15-10.09-.15-.41,0-5.52,0-10.09,.15-2.58,.08-4.8,.42-6.03,1.98-1.89,2.41-1.57,10.1-1.57,10.1,0,0-.32,7.7,1.57,10.1,1.23,1.56,3.45,1.9,6.03,1.98,4.57,.15,9.69,.15,10.09,.15,.41,0,5.52,0,10.09-.15,2.58-.08,4.8-.42,6.03-1.98,1.89-2.41,1.57-10.1,1.57-10.1,0,0,.32-7.7-1.57-10.1Zm-20.54,16.8v-13.2l11.53,6.6-11.53,6.6Z"/></svg>